<svg xmlns="http://www.w3.org/2000/svg" xmlns:xlink="http://www.w3.org/1999/xlink" width="30" height="30" preserveAspectRatio="xMidYMid meet" viewBox="0 0 32 32" style="-ms-transform: rotate(360deg); -webkit-transform: rotate(360deg); transform: rotate(360deg);"><path fill="#828282" fill-rule="evenodd" d="m17 14.5l6 2.5v-2l-6-3V9a1 1 0 0 0-2 0v3l-6 3v2l6-2.5V20l-3 2v1l4-1l4 1v-1l-3-2Z"/><path fill="#828282" d="M16 30a14 14 0 1 1 14-14a14.016 14.016 0 0 1-14 14Zm0-26a12 12 0 1 0 12 12A12.014 12.014 0 0 0 16 4Z"/></svg>